<?xml version="1.0" encoding="utf-8"?>
<!-- Generator: Adobe Illustrator 25.0.0, SVG Export Plug-In . SVG Version: 6.00 Build 0)  -->
<svg version="1.1" id="Layer_1" xmlns="http://www.w3.org/2000/svg" xmlns:xlink="http://www.w3.org/1999/xlink" x="0px" y="0px"
	 viewBox="0 0 250 62" style="enable-background:new 0 0 250 62;" xml:space="preserve">
<style type="text/css">
	.st0{fill:#223668;}
	.st1{fill:#912037;}
	.st2{fill:#FFFFFF;}
</style>
<g>
	<polygon class="st0" points="51.3,14.7 59.7,14.7 59.7,22.8 65.1,22.8 64.5,21.7 62.4,20.6 61.8,14.3 58.7,12.5 59.1,10.4 
		57.7,8.3 57.5,6.1 56.8,4.6 56.7,2.6 52.4,1.3 51.7,7.8 49.3,4.8 25.8,3.7 24.5,1.4 1.4,1.3 1,4.1 2.1,7.2 4.1,7.2 5.2,6.2 
		6.9,6.3 8.6,7.5 12.3,6.2 12.2,7.7 13.9,8 17.2,9.7 18.6,9 20.6,10.3 19.7,11.7 21.9,13.4 21.7,15.2 25.9,13.4 29.2,11.9 
		30.9,10.4 34,10.1 38.3,13.2 39.2,14.5 43.5,19.4 45.3,19.5 46.8,22.8 51.3,22.8 	"/>
	<polygon class="st1" points="72.2,49.2 73.5,45.8 72.1,42.2 69.5,37.6 68.4,32.7 66.6,31.3 66.5,31.2 59.7,31.2 59.7,39.3 
		51.3,39.3 51.3,31.2 45.9,31.2 45.8,33 46.8,34.5 47.6,33.8 47.8,33.3 49.1,33.6 49.4,34.3 48.8,35.7 47.9,37.1 48.3,38.5 
		49.9,40.4 51.4,43.4 54,43.8 53.8,45.8 56.4,49.3 57,50.9 57,52.6 59.8,53.6 61.6,55.2 63.5,58.5 65.3,58.8 65.1,60.6 68.6,59.8 
		71,58.4 70.8,54.7 72.9,52.6 	"/>
	<polygon class="st2" points="65.1,22.8 59.7,22.8 59.7,14.7 51.3,14.7 51.3,22.8 46.8,22.8 43.2,22.8 43.2,25.4 47.4,25.4 
		50.6,25.4 51.7,26.9 53.3,23.6 54.4,26.6 55.8,19.4 57.6,27.9 58.4,25.3 66.6,25.3 	"/>
	<polygon class="st2" points="66.3,28.4 66.8,26.2 59.1,26.2 58.2,29.1 57.4,31.6 56.9,29.2 55.9,24.2 54.8,29.3 54.6,30.2 
		54.3,29.3 53.2,26.1 51.9,28.7 50.1,26.3 47.6,26.3 43.2,26.3 43.2,31.2 45.9,31.2 51.3,31.2 51.3,39.3 59.7,39.3 59.7,31.2 
		66.5,31.2 66.3,28.5 	"/>
	<rect x="43.2" y="25.4" class="st0" width="0" height="1"/>
	<polygon class="st0" points="47.6,26.2 47.4,25.4 43.2,25.4 43.2,26.3 47.6,26.3 	"/>
	<path class="st0" d="M66.8,26.2l0.1-0.4l-0.4-0.6h-8.1l-0.8,2.6l-1.7-8.5l-1.5,7.2l-1-3l-1.6,3.3l-1.1-1.5h-3.1l0.2,0.8l0,0.1h2.5
		l1.8,2.4l1.3-2.6l1.1,3.3c0.2,0,0.3,0,0.5,0l1-5.1l1,5c0.4,0,0.9-0.1,1.3-0.1l0.9-2.8H66.8z"/>
	<path class="st0" d="M54.6,30.2l0.2-0.9c-0.2,0-0.3,0-0.5,0L54.6,30.2z"/>
	<path class="st0" d="M57.4,31.6l0.8-2.5c-0.4,0-0.9,0.1-1.3,0.1L57.4,31.6z"/>
</g>
<g>
	<path class="st1" d="M81.6,2.4h12.1l0.1,4.7h-0.8c-0.1-1.5-0.5-2.5-1-3c-0.5-0.6-1.4-0.8-2.5-0.8h-2c-0.3,0-0.5,0.1-0.7,0.2
		c-0.1,0.1-0.2,0.3-0.2,0.5v4.6h0.7c1.5,0,2.3-0.9,2.6-2.6h0.8v6.4H90c0-0.7-0.1-1.2-0.3-1.6c-0.2-0.4-0.5-0.7-0.8-0.9
		c-0.3-0.2-0.8-0.3-1.2-0.3h-0.9v5c0,0.3,0.1,0.5,0.2,0.6c0.2,0.2,0.4,0.3,0.7,0.3h1.3v0.9h-7.3v-0.9h1.2c0.3,0,0.5-0.1,0.7-0.2
		c0.2-0.2,0.2-0.3,0.2-0.6V3.9c0-0.3-0.1-0.5-0.2-0.6c-0.2-0.1-0.5-0.2-0.9-0.2h-0.9V2.4z"/>
	<path class="st1" d="M95,2.4l4.1-0.2v12.4c0,0.2,0.1,0.4,0.2,0.5c0.1,0.1,0.3,0.2,0.6,0.2h0.5v0.9h-5.2v-0.9h0.6
		c0.3,0,0.5-0.1,0.6-0.2c0.1-0.1,0.2-0.4,0.2-0.7V4.2c0-0.3-0.1-0.6-0.3-0.7c-0.2-0.2-0.4-0.3-0.7-0.3H95V2.4z"/>
	<path class="st1" d="M106.6,6.9c1,0,1.9,0.2,2.7,0.6c0.8,0.4,1.4,1,1.8,1.7c0.4,0.7,0.6,1.5,0.6,2.5c0,1.5-0.5,2.7-1.6,3.5
		c-1,0.8-2.2,1.2-3.5,1.2c-0.9,0-1.8-0.2-2.6-0.6c-0.8-0.4-1.4-1-1.8-1.7c-0.4-0.7-0.6-1.5-0.6-2.4c0-1.3,0.5-2.5,1.4-3.4
		C104,7.4,105.2,6.9,106.6,6.9z M106.6,7.8c-0.6,0-1.2,0.3-1.5,0.9c-0.4,0.6-0.6,1.6-0.6,3c0,1.5,0.2,2.5,0.6,3.1
		c0.4,0.6,0.9,0.8,1.5,0.8c0.7,0,1.2-0.3,1.6-0.9c0.4-0.6,0.6-1.6,0.6-3c0-1.5-0.2-2.5-0.6-3C107.8,8.1,107.3,7.8,106.6,7.8z"/>
	<path class="st1" d="M119.2,15.2v0.9h-6.1v-0.9h0.8c0.3,0,0.5-0.1,0.7-0.2c0.1-0.1,0.2-0.3,0.2-0.5V9.4c0-0.4-0.1-0.7-0.3-0.9
		c-0.2-0.2-0.5-0.3-0.8-0.3h-0.5V7.4l3.7-0.2V10c0.2-0.9,0.6-1.7,1.1-2.2c0.5-0.5,1.1-0.8,1.8-0.8c0.6,0,1,0.2,1.4,0.5
		c0.3,0.3,0.5,0.7,0.5,1.2c0,0.4-0.1,0.8-0.3,1c-0.2,0.3-0.5,0.4-0.9,0.4c-0.3,0-0.6-0.1-0.8-0.3c-0.2-0.2-0.3-0.5-0.3-0.9
		c0-0.2,0.1-0.4,0.2-0.6c0.1-0.1,0.1-0.2,0.1-0.3c0-0.1,0-0.2-0.1-0.2c0,0-0.1-0.1-0.2-0.1c-0.2,0-0.5,0.1-0.7,0.4
		c-0.4,0.4-0.8,1-1,1.9c-0.3,0.9-0.4,1.7-0.4,2.6v1.9c0,0.2,0.1,0.4,0.2,0.5c0.1,0.1,0.3,0.2,0.5,0.2H119.2z"/>
	<path class="st1" d="M123.1,7.4l3.9-0.2v7.4c0,0.2,0.1,0.4,0.2,0.5c0.1,0.1,0.3,0.2,0.6,0.2h0.6v0.9h-5.2v-0.9h0.6
		c0.3,0,0.5-0.1,0.7-0.2c0.1-0.1,0.2-0.4,0.2-0.7v-5c0-0.3-0.1-0.6-0.3-0.7c-0.2-0.2-0.4-0.3-0.8-0.3h-0.4V7.4z M125.4,2.4
		c0.4,0,0.8,0.1,1.1,0.4c0.3,0.3,0.4,0.7,0.4,1.1c0,0.4-0.1,0.8-0.4,1.1c-0.3,0.3-0.7,0.4-1.1,0.4c-0.4,0-0.8-0.1-1.1-0.4
		c-0.3-0.3-0.4-0.7-0.4-1.1c0-0.4,0.1-0.8,0.4-1.1C124.7,2.5,125,2.4,125.4,2.4z"/>
	<path class="st1" d="M135.1,2.3l4.3-0.2v11.4c0,0.6,0,1,0.1,1.2c0.1,0.2,0.2,0.3,0.4,0.4c0.2,0.1,0.5,0.1,0.9,0.1v0.8l-3.6,0.1
		l-0.3-1.7c-0.5,0.7-1,1.2-1.5,1.4c-0.4,0.2-1,0.4-1.7,0.4c-1.2,0-2.2-0.4-2.9-1.2c-0.8-0.8-1.1-1.9-1.1-3.3c0-1.5,0.4-2.7,1.2-3.6
		c0.8-0.9,1.8-1.3,3-1.3c0.6,0,1.2,0.1,1.7,0.4c0.5,0.3,0.9,0.7,1.3,1.3v-4c0-0.5,0-0.8-0.1-1c-0.1-0.2-0.2-0.3-0.3-0.4
		c-0.1-0.1-0.4-0.1-0.9-0.1h-0.5V2.3z M134.8,8.1c-0.7,0-1.3,0.3-1.6,0.9c-0.3,0.5-0.4,1.3-0.4,2.5c0,0.9,0.1,1.6,0.2,2.1
		c0.2,0.5,0.4,0.8,0.7,1c0.3,0.2,0.6,0.3,1,0.3c0.6,0,1.1-0.3,1.5-0.8c0.5-0.7,0.8-1.6,0.8-2.7c0-1-0.2-1.8-0.7-2.4
		C135.9,8.4,135.3,8.1,134.8,8.1z"/>
	<path class="st1" d="M152.3,15l0.4,0.7c-0.4,0.3-0.7,0.4-1,0.5c-0.3,0.1-0.6,0.1-1,0.1c-0.5,0-1-0.1-1.3-0.3
		c-0.3-0.2-0.6-0.7-0.9-1.3c-0.6,0.6-1.2,1.1-1.7,1.3c-0.5,0.2-1.1,0.3-1.7,0.3c-0.9,0-1.6-0.2-2-0.6c-0.5-0.4-0.7-0.9-0.7-1.5
		c0-0.9,0.5-1.7,1.4-2.3c0.7-0.4,2.3-0.9,4.8-1.3V9.4c0-0.5-0.2-0.9-0.5-1.2c-0.3-0.3-0.8-0.5-1.3-0.5c-0.4,0-0.8,0.1-1.1,0.3
		c-0.2,0.1-0.3,0.2-0.3,0.4c0,0.1,0,0.2,0.1,0.3c0.2,0.3,0.3,0.6,0.3,0.8c0,0.3-0.1,0.6-0.3,0.8c-0.2,0.2-0.5,0.3-0.9,0.3
		c-0.4,0-0.7-0.1-1-0.3c-0.2-0.2-0.4-0.5-0.4-0.9c0-0.6,0.3-1.1,1-1.6c0.8-0.6,1.8-0.9,3-0.9c0.9,0,1.7,0.1,2.4,0.4
		c0.5,0.2,0.8,0.5,1.1,0.9c0.3,0.4,0.4,1,0.4,1.7v4.4c0,0.3,0.1,0.6,0.2,0.7c0.1,0.1,0.3,0.2,0.5,0.2C151.8,15.3,152,15.2,152.3,15z
		 M148.4,11.5c-1.3,0.2-2.2,0.5-2.7,0.8c-0.5,0.4-0.7,0.9-0.7,1.5c0,0.4,0.1,0.8,0.3,1c0.2,0.2,0.5,0.3,0.9,0.3
		c0.6,0,1.1-0.2,1.5-0.7s0.6-1,0.6-1.8V11.5z"/>
	<path class="st1" d="M158.8,2.4h12l0.3,4.8h-0.8c-0.2-1.1-0.4-2-0.7-2.5c-0.3-0.5-0.7-0.9-1.1-1.1c-0.5-0.2-1.1-0.4-1.8-0.4h-1.9
		c-0.3,0-0.5,0.1-0.6,0.2s-0.2,0.3-0.2,0.5v4.8h0.6c0.7,0,1.3-0.2,1.7-0.6c0.4-0.4,0.6-1.1,0.7-2h0.8v6.4h-0.8
		c-0.1-1.1-0.3-1.8-0.7-2.2c-0.4-0.4-1-0.7-1.9-0.7h-0.5v5.1c0,0.2,0.1,0.4,0.2,0.5c0.2,0.1,0.5,0.2,0.9,0.2h1.7
		c1.1,0,2.1-0.4,2.8-1.1c0.7-0.7,1.2-1.8,1.3-3.3h0.8l-0.2,5.2h-12.5v-0.9h1.2c0.3,0,0.5-0.1,0.6-0.2c0.1-0.1,0.2-0.3,0.2-0.6V3.9
		c0-0.2-0.1-0.4-0.2-0.5c-0.1-0.1-0.4-0.2-0.8-0.2h-1.1V2.4z"/>
	<path class="st1" d="M179.3,7.7l0.6-0.7h0.6l0.2,3h-0.8c-0.4-0.8-0.8-1.3-1.3-1.7c-0.5-0.3-1-0.5-1.7-0.5c-0.6,0-1,0.1-1.3,0.3
		c-0.3,0.2-0.5,0.5-0.5,0.8c0,0.3,0.1,0.6,0.4,0.8c0.2,0.2,0.9,0.4,1.9,0.6c1,0.2,1.6,0.4,1.9,0.5c0.6,0.2,1.1,0.6,1.4,1.1
		c0.3,0.5,0.5,1,0.5,1.7c0,0.8-0.3,1.5-1,2c-0.6,0.5-1.5,0.8-2.6,0.8c-0.5,0-1-0.1-1.4-0.2c-0.4-0.1-0.8-0.3-1.3-0.6l-0.7,0.8h-0.7
		l-0.2-3.3h0.8c0.7,1.7,1.8,2.5,3.4,2.5c0.7,0,1.2-0.1,1.5-0.4c0.3-0.3,0.5-0.6,0.5-0.9c0-0.3-0.1-0.6-0.3-0.7
		c-0.2-0.2-0.8-0.3-1.7-0.5c-1-0.2-1.7-0.4-2.1-0.5c-0.6-0.2-1.1-0.6-1.4-1c-0.3-0.4-0.5-0.9-0.5-1.6c0-0.9,0.3-1.6,0.9-2.1
		c0.6-0.6,1.3-0.8,2.3-0.8c0.5,0,0.9,0.1,1.3,0.2C178.4,7.2,178.8,7.4,179.3,7.7z"/>
	<path class="st1" d="M188.6,7.7l0.6-0.7h0.6l0.2,3h-0.8c-0.4-0.8-0.8-1.3-1.3-1.7c-0.5-0.3-1-0.5-1.7-0.5c-0.6,0-1,0.1-1.3,0.3
		c-0.3,0.2-0.5,0.5-0.5,0.8c0,0.3,0.1,0.6,0.4,0.8c0.2,0.2,0.9,0.4,1.9,0.6c1,0.2,1.6,0.4,1.9,0.5c0.6,0.2,1.1,0.6,1.4,1.1
		c0.3,0.5,0.5,1,0.5,1.7c0,0.8-0.3,1.5-1,2c-0.6,0.5-1.5,0.8-2.6,0.8c-0.5,0-1-0.1-1.4-0.2c-0.4-0.1-0.8-0.3-1.3-0.6l-0.7,0.8h-0.7
		l-0.2-3.3h0.8c0.7,1.7,1.8,2.5,3.4,2.5c0.7,0,1.2-0.1,1.5-0.4c0.3-0.3,0.5-0.6,0.5-0.9c0-0.3-0.1-0.6-0.3-0.7
		c-0.2-0.2-0.8-0.3-1.7-0.5c-1-0.2-1.7-0.4-2.1-0.5c-0.6-0.2-1.1-0.6-1.4-1c-0.3-0.4-0.5-0.9-0.5-1.6c0-0.9,0.3-1.6,0.9-2.1
		s1.4-0.8,2.3-0.8c0.5,0,0.9,0.1,1.3,0.2C187.8,7.2,188.2,7.4,188.6,7.7z"/>
	<path class="st1" d="M201,11.8h-6.1c0,1.2,0.3,2.1,0.7,2.7c0.5,0.6,1.1,0.9,1.8,0.9c0.5,0,1-0.1,1.5-0.4s1-0.8,1.5-1.6l0.7,0.4
		c-0.5,0.9-1.1,1.6-1.8,2s-1.5,0.6-2.5,0.6c-1.4,0-2.6-0.4-3.5-1.3c-0.9-0.9-1.3-2-1.3-3.3s0.4-2.5,1.3-3.4c0.9-0.9,2-1.4,3.3-1.4
		c0.9,0,1.7,0.2,2.3,0.5c0.6,0.4,1.1,0.9,1.5,1.6C200.8,9.8,200.9,10.7,201,11.8z M194.9,11h2.9c0.3,0,0.5-0.1,0.6-0.2
		c0.1-0.1,0.2-0.4,0.2-0.7c0-0.7-0.2-1.3-0.5-1.7c-0.3-0.4-0.7-0.6-1.3-0.6c-0.6,0-1.1,0.3-1.4,0.8C195.1,9.1,194.9,9.9,194.9,11z"
		/>
	<path class="st1" d="M214.3,15.2v0.9h-5.2v-0.9h0.5c0.3,0,0.5-0.1,0.7-0.2c0.1-0.1,0.2-0.4,0.2-0.7v-3.8c0-0.6-0.1-1.1-0.4-1.5
		c-0.3-0.3-0.7-0.5-1.2-0.5c-0.6,0-1.2,0.2-1.6,0.7c-0.4,0.5-0.6,1.2-0.6,2.1v2.9c0,0.3,0.1,0.5,0.2,0.7c0.1,0.1,0.3,0.2,0.6,0.2
		h0.7v0.9h-5.4v-0.9h0.7c0.3,0,0.5-0.1,0.6-0.2c0.1-0.1,0.2-0.4,0.2-0.7V9.2c0-0.3-0.1-0.5-0.3-0.7c-0.2-0.2-0.5-0.3-0.8-0.3h-0.4
		V7.4l3.6-0.2c0.1,0.5,0.2,1.2,0.3,1.9c0.5-0.7,1-1.2,1.6-1.5c0.6-0.3,1.2-0.5,1.8-0.5c0.9,0,1.5,0.3,2,0.9c0.5,0.6,0.7,1.4,0.7,2.4
		v4c0,0.3,0.1,0.5,0.2,0.7c0.1,0.1,0.4,0.2,0.7,0.2H214.3z"/>
	<path class="st1" d="M218.3,3.8h0.8v3.6h2.9v1h-2.9v5.5c0,0.4,0.1,0.6,0.3,0.9c0.2,0.2,0.4,0.3,0.7,0.3c0.9,0,1.3-0.8,1.4-2.4h0.8
		c0,0.9-0.2,1.6-0.4,2.1c-0.3,0.5-0.6,0.9-1.1,1.2c-0.5,0.3-1,0.4-1.6,0.4c-0.5,0-1-0.1-1.4-0.3c-0.4-0.2-0.7-0.5-0.9-0.9
		c-0.2-0.4-0.3-0.9-0.3-1.4V8.4h-1.5V7.6c0.9-0.1,1.7-0.5,2.2-1.1C217.8,5.9,218.1,5,218.3,3.8z"/>
	<path class="st1" d="M223.6,7.4l3.9-0.2v7.4c0,0.2,0.1,0.4,0.2,0.5c0.1,0.1,0.3,0.2,0.6,0.2h0.6v0.9h-5.2v-0.9h0.6
		c0.3,0,0.5-0.1,0.7-0.2c0.1-0.1,0.2-0.4,0.2-0.7v-5c0-0.3-0.1-0.6-0.3-0.7c-0.2-0.2-0.4-0.3-0.8-0.3h-0.4V7.4z M226,2.4
		c0.4,0,0.8,0.1,1.1,0.4c0.3,0.3,0.4,0.7,0.4,1.1c0,0.4-0.1,0.8-0.4,1.1c-0.3,0.3-0.7,0.4-1.1,0.4c-0.4,0-0.8-0.1-1.1-0.4
		c-0.3-0.3-0.4-0.7-0.4-1.1c0-0.4,0.1-0.8,0.4-1.1C225.2,2.5,225.6,2.4,226,2.4z"/>
	<path class="st1" d="M240.4,15l0.4,0.7c-0.4,0.3-0.7,0.4-1,0.5c-0.3,0.1-0.6,0.1-1,0.1c-0.5,0-1-0.1-1.3-0.3
		c-0.3-0.2-0.6-0.7-0.9-1.3c-0.6,0.6-1.2,1.1-1.7,1.3c-0.5,0.2-1.1,0.3-1.7,0.3c-0.9,0-1.6-0.2-2-0.6c-0.5-0.4-0.7-0.9-0.7-1.5
		c0-0.9,0.5-1.7,1.4-2.3c0.7-0.4,2.3-0.9,4.8-1.3V9.4c0-0.5-0.2-0.9-0.5-1.2c-0.3-0.3-0.8-0.5-1.3-0.5c-0.4,0-0.8,0.1-1.1,0.3
		c-0.2,0.1-0.3,0.2-0.3,0.4c0,0.1,0,0.2,0.1,0.3c0.2,0.3,0.3,0.6,0.3,0.8c0,0.3-0.1,0.6-0.3,0.8c-0.2,0.2-0.5,0.3-0.9,0.3
		c-0.4,0-0.7-0.1-1-0.3c-0.2-0.2-0.4-0.5-0.4-0.9c0-0.6,0.3-1.1,1-1.6c0.8-0.6,1.8-0.9,3-0.9c0.9,0,1.7,0.1,2.4,0.4
		c0.5,0.2,0.8,0.5,1.1,0.9c0.3,0.4,0.4,1,0.4,1.7v4.4c0,0.3,0.1,0.6,0.2,0.7c0.1,0.1,0.3,0.2,0.5,0.2
		C239.8,15.3,240.1,15.2,240.4,15z M236.5,11.5c-1.3,0.2-2.2,0.5-2.7,0.8c-0.5,0.4-0.7,0.9-0.7,1.5c0,0.4,0.1,0.8,0.3,1
		c0.2,0.2,0.5,0.3,0.9,0.3c0.6,0,1.1-0.2,1.5-0.7s0.6-1,0.6-1.8V11.5z"/>
	<path class="st1" d="M241.6,2.4l4.1-0.2v12.4c0,0.2,0.1,0.4,0.2,0.5c0.1,0.1,0.3,0.2,0.6,0.2h0.5v0.9h-5.2v-0.9h0.6
		c0.3,0,0.5-0.1,0.6-0.2c0.1-0.1,0.2-0.4,0.2-0.7V4.2c0-0.3-0.1-0.6-0.3-0.7s-0.4-0.3-0.7-0.3h-0.7V2.4z"/>
</g>
<g>
	<path class="st0" d="M81.5,23.4H86V24h-0.8c-0.3,0-0.5,0.1-0.6,0.2c-0.1,0.1-0.1,0.4-0.1,0.8v3.3h4.9v-3.3c0-0.4,0-0.7-0.1-0.8
		C89.2,24,89,24,88.7,24h-0.8v-0.5h4.6V24h-0.8c-0.2,0-0.4,0-0.4,0.1c-0.1,0.1-0.2,0.1-0.2,0.3c0,0.1,0,0.3,0,0.6v7.7
		c0,0.4,0,0.6,0.1,0.7c0.1,0.2,0.4,0.2,0.7,0.2h0.7v0.5h-4.6v-0.5h0.8c0.3,0,0.5-0.1,0.6-0.3c0.1-0.1,0.1-0.3,0.1-0.7v-3.7h-4.9v3.8
		c0,0.4,0,0.6,0.1,0.7c0.1,0.2,0.3,0.2,0.6,0.2H86v0.5h-4.6v-0.5h0.9c0.2,0,0.3,0,0.4-0.1c0.1-0.1,0.2-0.2,0.2-0.3
		c0-0.1,0-0.3,0-0.6v-7.8c0-0.4,0-0.7-0.1-0.8C82.7,24,82.5,24,82.2,24h-0.8V23.4z"/>
	<path class="st0" d="M99.9,30.8H95c0,1,0.2,1.8,0.6,2.2c0.4,0.5,0.9,0.7,1.6,0.7c0.9,0,1.7-0.5,2.3-1.6l0.5,0.2
		c-0.7,1.4-1.7,2.1-3.1,2.1c-0.9,0-1.7-0.3-2.3-1c-0.6-0.7-0.9-1.5-0.9-2.5c0-1.1,0.3-2,0.9-2.7c0.6-0.7,1.4-1,2.3-1
		c0.7,0,1.2,0.2,1.7,0.5c0.5,0.3,0.8,0.8,1.1,1.5C99.8,29.6,99.9,30.1,99.9,30.8z M95,30.3H98c0.2,0,0.3-0.1,0.4-0.2
		c0.1-0.1,0.1-0.3,0.1-0.6c0-0.5-0.2-1-0.5-1.4c-0.3-0.4-0.7-0.6-1.2-0.6c-0.5,0-0.9,0.2-1.3,0.7C95.2,28.7,95,29.4,95,30.3z"/>
	<path class="st0" d="M108,33.4l0.3,0.4c-0.4,0.4-0.7,0.5-1.2,0.5c-0.3,0-0.6-0.1-0.8-0.3c-0.2-0.2-0.4-0.5-0.6-0.9
		c-0.5,0.5-0.9,0.8-1.2,1s-0.8,0.2-1.3,0.2c-0.7,0-1.2-0.2-1.6-0.5c-0.4-0.3-0.5-0.7-0.5-1.2c0-0.7,0.4-1.3,1.2-1.8
		c0.8-0.5,1.9-0.8,3.3-0.9v-1c0-0.4-0.1-0.7-0.4-0.9c-0.3-0.3-0.7-0.4-1.1-0.4c-0.4,0-0.8,0.1-1.1,0.3c-0.2,0.1-0.3,0.3-0.3,0.4
		c0,0.1,0.1,0.2,0.2,0.3c0.1,0.2,0.2,0.4,0.2,0.5c0,0.2-0.1,0.4-0.2,0.5c-0.1,0.1-0.3,0.2-0.6,0.2c-0.2,0-0.4-0.1-0.6-0.2
		c-0.2-0.2-0.2-0.4-0.2-0.6c0-0.5,0.3-0.9,0.8-1.3c0.5-0.4,1.2-0.6,2.1-0.6c0.8,0,1.4,0.2,1.9,0.5c0.4,0.4,0.6,0.8,0.6,1.3v3.7
		c0,0.3,0.1,0.6,0.2,0.7c0.1,0.2,0.2,0.2,0.4,0.2C107.6,33.6,107.8,33.6,108,33.4z M105.6,30.5c-1.2,0.2-2.1,0.4-2.6,0.8
		c-0.4,0.3-0.6,0.7-0.6,1.2c0,0.4,0.1,0.7,0.3,0.9c0.2,0.2,0.5,0.3,0.8,0.3c0.6,0,1.1-0.2,1.5-0.7c0.4-0.4,0.6-1,0.6-1.6V30.5z"/>
	<path class="st0" d="M111.5,23.3v9.9c0,0.1,0,0.2,0.1,0.3c0.1,0.1,0.3,0.1,0.4,0.1h0.7v0.5h-3.9v-0.5h0.7c0.2,0,0.4-0.1,0.5-0.2
		c0.1-0.1,0.2-0.3,0.2-0.5v-8.3c0-0.2-0.1-0.4-0.2-0.5c-0.2-0.2-0.4-0.2-0.7-0.2h-0.6v-0.5L111.5,23.3z"/>
	<path class="st0" d="M115.2,24.6h0.5v2.8h2.2V28h-2.2v4.4c0,0.4,0.1,0.7,0.3,0.9c0.2,0.2,0.4,0.3,0.7,0.3c0.3,0,0.6-0.2,0.8-0.5
		c0.2-0.3,0.4-0.8,0.4-1.5h0.5c0,0.9-0.2,1.6-0.6,2s-0.9,0.7-1.5,0.7c-0.6,0-1-0.2-1.3-0.5c-0.3-0.3-0.5-0.7-0.5-1.2V28h-1.2v-0.5
		c0.5-0.1,1-0.3,1.2-0.7C115,26.3,115.2,25.5,115.2,24.6z"/>
	<path class="st0" d="M118.9,23.4l2.6-0.1v5.2c0.4-0.5,0.7-0.8,1.2-1c0.4-0.2,0.8-0.3,1.3-0.3c0.4,0,0.8,0.1,1.2,0.3
		c0.3,0.2,0.5,0.5,0.7,0.9c0.2,0.4,0.3,0.9,0.3,1.5V33c0,0.2,0.1,0.4,0.2,0.5c0.1,0.1,0.3,0.1,0.5,0.1h0.6v0.5h-3.7v-0.5h0.4
		c0.3,0,0.5,0,0.6-0.1c0.1-0.1,0.2-0.2,0.2-0.4v-3.2c0-0.6-0.1-1-0.4-1.3c-0.3-0.3-0.6-0.5-1-0.5c-0.3,0-0.6,0.1-0.9,0.3
		c-0.3,0.2-0.5,0.5-0.7,0.8c-0.2,0.4-0.3,0.8-0.3,1.2v2.7c0,0.2,0.1,0.4,0.2,0.5c0.1,0.1,0.3,0.2,0.5,0.2h0.6v0.5h-3.6v-0.5h0.4
		c0.3,0,0.5-0.1,0.6-0.2c0.1-0.1,0.2-0.3,0.2-0.5v-8.1c0-0.3-0.1-0.5-0.2-0.7c-0.2-0.1-0.4-0.2-0.7-0.2h-0.5V23.4z"/>
	<path class="st0" d="M133.2,32.1l0.5,0.1c-0.4,1.4-1.2,2.1-2.5,2.1c-0.9,0-1.7-0.3-2.3-0.9c-0.6-0.6-0.9-1.5-0.9-2.5
		c0-1.2,0.3-2.1,1-2.8c0.7-0.7,1.4-1,2.3-1c0.7,0,1.2,0.2,1.7,0.6c0.4,0.4,0.7,0.8,0.7,1.2c0,0.3-0.1,0.5-0.2,0.7
		c-0.2,0.2-0.4,0.3-0.6,0.3c-0.2,0-0.4-0.1-0.6-0.2c-0.2-0.1-0.2-0.3-0.2-0.5c0-0.2,0.1-0.4,0.2-0.6c0.1-0.1,0.1-0.2,0.1-0.2
		c0-0.1-0.1-0.3-0.3-0.4c-0.2-0.1-0.4-0.2-0.8-0.2c-0.6,0-1,0.2-1.3,0.6c-0.4,0.6-0.7,1.4-0.7,2.5c0,1,0.2,1.7,0.6,2.2
		s0.9,0.8,1.5,0.8C132.2,33.7,132.8,33.2,133.2,32.1z"/>
	<path class="st0" d="M141.7,33.4l0.3,0.4c-0.4,0.4-0.7,0.5-1.2,0.5c-0.3,0-0.6-0.1-0.8-0.3c-0.2-0.2-0.4-0.5-0.6-0.9
		c-0.5,0.5-0.9,0.8-1.2,1c-0.3,0.2-0.8,0.2-1.3,0.2c-0.7,0-1.2-0.2-1.6-0.5c-0.4-0.3-0.5-0.7-0.5-1.2c0-0.7,0.4-1.3,1.2-1.8
		c0.8-0.5,1.9-0.8,3.3-0.9v-1c0-0.4-0.1-0.7-0.4-0.9c-0.3-0.3-0.7-0.4-1.1-0.4c-0.4,0-0.8,0.1-1.1,0.3c-0.2,0.1-0.3,0.3-0.3,0.4
		c0,0.1,0.1,0.2,0.2,0.3c0.1,0.2,0.2,0.4,0.2,0.5c0,0.2-0.1,0.4-0.2,0.5c-0.1,0.1-0.3,0.2-0.6,0.2c-0.2,0-0.4-0.1-0.6-0.2
		c-0.2-0.2-0.2-0.4-0.2-0.6c0-0.5,0.3-0.9,0.8-1.3c0.5-0.4,1.2-0.6,2.1-0.6c0.8,0,1.4,0.2,1.9,0.5c0.4,0.4,0.6,0.8,0.6,1.3v3.7
		c0,0.3,0.1,0.6,0.2,0.7c0.1,0.2,0.2,0.2,0.4,0.2C141.3,33.6,141.5,33.6,141.7,33.4z M139.3,30.5c-1.2,0.2-2.1,0.4-2.6,0.8
		c-0.4,0.3-0.6,0.7-0.6,1.2c0,0.4,0.1,0.7,0.3,0.9c0.2,0.2,0.5,0.3,0.8,0.3c0.6,0,1.1-0.2,1.5-0.7c0.4-0.4,0.6-1,0.6-1.6V30.5z"/>
	<path class="st0" d="M142.5,27.4l2.4-0.1V30c0.3-0.9,0.6-1.6,0.9-2.1c0.4-0.5,0.8-0.7,1.4-0.7c0.4,0,0.7,0.1,0.9,0.3
		c0.2,0.2,0.3,0.5,0.3,0.9c0,0.3-0.1,0.5-0.2,0.7c-0.1,0.2-0.3,0.3-0.6,0.3c-0.2,0-0.4-0.1-0.5-0.2s-0.2-0.3-0.2-0.6
		c0-0.2,0-0.3,0.1-0.5c0.1-0.1,0.1-0.2,0.1-0.2c0-0.1,0-0.1-0.1-0.1c-0.2,0-0.4,0.1-0.7,0.3c-0.3,0.3-0.6,0.8-0.8,1.3
		c-0.3,0.9-0.4,1.6-0.4,2.1v1.5c0,0.2,0.1,0.3,0.2,0.4c0.1,0.1,0.3,0.1,0.6,0.1h0.9v0.5h-4.2v-0.5h0.7c0.2,0,0.4,0,0.5-0.1
		c0.1-0.1,0.2-0.2,0.2-0.3v-4.3c0-0.3-0.1-0.6-0.2-0.7c-0.1-0.2-0.3-0.2-0.6-0.2h-0.6V27.4z"/>
	<path class="st0" d="M155.4,30.8h-4.9c0,1,0.2,1.8,0.6,2.2c0.4,0.5,0.9,0.7,1.6,0.7c0.9,0,1.7-0.5,2.3-1.6l0.5,0.2
		c-0.7,1.4-1.7,2.1-3.1,2.1c-0.9,0-1.7-0.3-2.3-1c-0.6-0.7-0.9-1.5-0.9-2.5c0-1.1,0.3-2,0.9-2.7c0.6-0.7,1.4-1,2.3-1
		c0.7,0,1.2,0.2,1.7,0.5c0.5,0.3,0.8,0.8,1.1,1.5C155.3,29.6,155.4,30.1,155.4,30.8z M150.6,30.3h2.9c0.2,0,0.3-0.1,0.4-0.2
		c0.1-0.1,0.1-0.3,0.1-0.6c0-0.5-0.2-1-0.5-1.4c-0.3-0.4-0.7-0.6-1.2-0.6c-0.5,0-0.9,0.2-1.3,0.7S150.6,29.4,150.6,30.3z"/>
	<path class="st0" d="M160.4,23.4h5.3c1.2,0,2.1,0.3,2.7,0.8c0.6,0.5,0.9,1.3,0.9,2.1c0,0.9-0.3,1.5-0.9,2c-0.8,0.6-1.8,1-3,1h-1.9
		V33c0,0.2,0.1,0.4,0.2,0.5c0.1,0.1,0.3,0.2,0.5,0.2h1.2v0.5h-5.2v-0.5h1.1c0.2,0,0.4,0,0.5-0.1s0.1-0.2,0.1-0.3v-8.6
		c0-0.2-0.1-0.4-0.2-0.5c-0.1-0.1-0.4-0.1-0.7-0.1h-0.8V23.4z M163.7,28.8h1.5c0.9,0,1.6-0.2,2-0.6c0.4-0.4,0.6-1,0.6-1.9
		c0-0.6-0.1-1.1-0.3-1.4c-0.2-0.3-0.5-0.6-0.8-0.7c-0.4-0.2-0.9-0.2-1.8-0.2c-0.5,0-0.9,0.1-1,0.2c-0.1,0.1-0.2,0.3-0.2,0.5V28.8z"
		/>
	<path class="st0" d="M177.3,33.4l0.3,0.4c-0.4,0.4-0.7,0.5-1.2,0.5c-0.3,0-0.6-0.1-0.8-0.3c-0.2-0.2-0.4-0.5-0.6-0.9
		c-0.5,0.5-0.9,0.8-1.2,1c-0.3,0.2-0.8,0.2-1.3,0.2c-0.7,0-1.2-0.2-1.6-0.5c-0.4-0.3-0.5-0.7-0.5-1.2c0-0.7,0.4-1.3,1.2-1.8
		c0.8-0.5,1.9-0.8,3.3-0.9v-1c0-0.4-0.1-0.7-0.4-0.9c-0.3-0.3-0.7-0.4-1.1-0.4c-0.4,0-0.8,0.1-1.1,0.3c-0.2,0.1-0.3,0.3-0.3,0.4
		c0,0.1,0.1,0.2,0.2,0.3c0.1,0.2,0.2,0.4,0.2,0.5c0,0.2-0.1,0.4-0.2,0.5c-0.1,0.1-0.3,0.2-0.6,0.2c-0.2,0-0.4-0.1-0.6-0.2
		c-0.2-0.2-0.2-0.4-0.2-0.6c0-0.5,0.3-0.9,0.8-1.3c0.5-0.4,1.2-0.6,2.1-0.6c0.8,0,1.4,0.2,1.9,0.5c0.4,0.4,0.6,0.8,0.6,1.3v3.7
		c0,0.3,0.1,0.6,0.2,0.7c0.1,0.2,0.2,0.2,0.4,0.2C176.9,33.6,177.1,33.6,177.3,33.4z M174.9,30.5c-1.2,0.2-2.1,0.4-2.6,0.8
		c-0.4,0.3-0.6,0.7-0.6,1.2c0,0.4,0.1,0.7,0.3,0.9c0.2,0.2,0.5,0.3,0.8,0.3c0.6,0,1.1-0.2,1.5-0.7c0.4-0.4,0.6-1,0.6-1.6V30.5z"/>
	<path class="st0" d="M178.1,27.4l2.4-0.1V30c0.3-0.9,0.6-1.6,0.9-2.1c0.4-0.5,0.8-0.7,1.4-0.7c0.4,0,0.7,0.1,0.9,0.3
		c0.2,0.2,0.3,0.5,0.3,0.9c0,0.3-0.1,0.5-0.2,0.7c-0.1,0.2-0.3,0.3-0.6,0.3c-0.2,0-0.4-0.1-0.5-0.2c-0.1-0.1-0.2-0.3-0.2-0.6
		c0-0.2,0-0.3,0.1-0.5c0.1-0.1,0.1-0.2,0.1-0.2c0-0.1,0-0.1-0.1-0.1c-0.2,0-0.4,0.1-0.7,0.3c-0.3,0.3-0.6,0.8-0.8,1.3
		c-0.3,0.9-0.4,1.6-0.4,2.1v1.5c0,0.2,0.1,0.3,0.2,0.4c0.1,0.1,0.3,0.1,0.6,0.1h0.9v0.5h-4.2v-0.5h0.7c0.2,0,0.4,0,0.5-0.1
		c0.1-0.1,0.2-0.2,0.2-0.3v-4.3c0-0.3-0.1-0.6-0.2-0.7c-0.1-0.2-0.3-0.2-0.6-0.2h-0.6V27.4z"/>
	<path class="st0" d="M186.5,24.6h0.5v2.8h2.2V28H187v4.4c0,0.4,0.1,0.7,0.3,0.9c0.2,0.2,0.4,0.3,0.7,0.3c0.3,0,0.6-0.2,0.8-0.5
		c0.2-0.3,0.4-0.8,0.4-1.5h0.5c0,0.9-0.2,1.6-0.6,2c-0.4,0.4-0.9,0.7-1.5,0.7c-0.6,0-1-0.2-1.3-0.5c-0.3-0.3-0.5-0.7-0.5-1.2V28
		h-1.2v-0.5c0.5-0.1,1-0.3,1.2-0.7C186.2,26.3,186.4,25.5,186.5,24.6z"/>
	<path class="st0" d="M190.3,27.4l2.3-0.1c0.1,0.4,0.2,0.9,0.2,1.5c0.3-0.5,0.7-0.9,1.1-1.1c0.4-0.2,0.9-0.4,1.4-0.4
		c0.5,0,0.8,0.1,1.1,0.3c0.3,0.2,0.5,0.5,0.7,0.8c0.2,0.4,0.3,0.8,0.3,1.3v3.3c0,0.2,0.1,0.4,0.2,0.5c0.1,0.1,0.3,0.2,0.6,0.2h0.5
		v0.5H195v-0.5h0.3c0.3,0,0.5-0.1,0.7-0.2c0.1-0.1,0.2-0.3,0.2-0.5v-2.9c0-0.6-0.1-1.1-0.3-1.4c-0.3-0.4-0.7-0.7-1.2-0.7
		c-0.5,0-1,0.2-1.4,0.7c-0.4,0.4-0.5,1-0.5,1.7v2.5c0,0.2,0.1,0.4,0.2,0.5c0.1,0.1,0.3,0.2,0.6,0.2h0.5v0.5h-3.6v-0.5h0.5
		c0.2,0,0.4,0,0.5-0.1c0.1-0.1,0.2-0.2,0.2-0.4v-4.4c0-0.3-0.1-0.5-0.2-0.7c-0.2-0.2-0.4-0.2-0.7-0.2h-0.3V27.4z"/>
	<path class="st0" d="M205.6,30.8h-4.9c0,1,0.2,1.8,0.6,2.2c0.4,0.5,0.9,0.7,1.6,0.7c0.9,0,1.7-0.5,2.3-1.6l0.5,0.2
		c-0.7,1.4-1.7,2.1-3.1,2.1c-0.9,0-1.7-0.3-2.3-1c-0.6-0.7-0.9-1.5-0.9-2.5c0-1.1,0.3-2,0.9-2.7c0.6-0.7,1.4-1,2.3-1
		c0.7,0,1.2,0.2,1.7,0.5c0.5,0.3,0.8,0.8,1.1,1.5C205.5,29.6,205.6,30.1,205.6,30.8z M200.8,30.3h2.9c0.2,0,0.3-0.1,0.4-0.2
		c0.1-0.1,0.1-0.3,0.1-0.6c0-0.5-0.2-1-0.5-1.4c-0.3-0.4-0.7-0.6-1.2-0.6c-0.5,0-0.9,0.2-1.3,0.7C201,28.7,200.8,29.4,200.8,30.3z"
		/>
	<path class="st0" d="M206.4,27.4l2.4-0.1V30c0.3-0.9,0.6-1.6,0.9-2.1c0.4-0.5,0.8-0.7,1.4-0.7c0.4,0,0.7,0.1,0.9,0.3
		c0.2,0.2,0.3,0.5,0.3,0.9c0,0.3-0.1,0.5-0.2,0.7c-0.1,0.2-0.3,0.3-0.6,0.3c-0.2,0-0.4-0.1-0.5-0.2s-0.2-0.3-0.2-0.6
		c0-0.2,0-0.3,0.1-0.5c0.1-0.1,0.1-0.2,0.1-0.2c0-0.1,0-0.1-0.1-0.1c-0.2,0-0.4,0.1-0.7,0.3c-0.3,0.3-0.6,0.8-0.8,1.3
		c-0.3,0.9-0.4,1.6-0.4,2.1v1.5c0,0.2,0.1,0.3,0.2,0.4c0.1,0.1,0.3,0.1,0.6,0.1h0.9v0.5h-4.2v-0.5h0.7c0.2,0,0.4,0,0.5-0.1
		c0.1-0.1,0.2-0.2,0.2-0.3v-4.3c0-0.3-0.1-0.6-0.2-0.7c-0.1-0.2-0.3-0.2-0.6-0.2h-0.6V27.4z"/>
	<path class="st0" d="M213.8,31.6c0.3,0.8,0.6,1.4,1,1.7c0.4,0.3,0.9,0.5,1.4,0.5c0.5,0,0.9-0.1,1.2-0.3c0.3-0.2,0.4-0.5,0.4-0.9
		c0-0.2-0.1-0.4-0.2-0.5c-0.1-0.2-0.2-0.3-0.4-0.3c-0.2-0.1-0.7-0.2-1.4-0.3c-0.7-0.1-1.3-0.3-1.5-0.5c-0.3-0.2-0.5-0.4-0.7-0.7
		c-0.2-0.3-0.2-0.6-0.2-0.9c0-0.5,0.2-1,0.5-1.4c0.4-0.5,1-0.8,1.8-0.8c0.6,0,1.1,0.2,1.6,0.6l0.5-0.5h0.3l0.2,2.4h-0.5
		c-0.2-0.7-0.5-1.2-0.9-1.5c-0.4-0.3-0.8-0.5-1.3-0.5c-0.5,0-0.8,0.1-1.1,0.3c-0.3,0.2-0.4,0.5-0.4,0.8c0,0.3,0.1,0.5,0.4,0.7
		c0.2,0.2,0.7,0.3,1.4,0.5c0.8,0.1,1.3,0.3,1.6,0.3c0.4,0.1,0.7,0.4,0.9,0.7c0.2,0.3,0.3,0.7,0.3,1.1c0,0.6-0.2,1.1-0.7,1.5
		c-0.5,0.4-1.1,0.6-1.8,0.6c-0.7,0-1.3-0.2-1.9-0.7l-0.5,0.6h-0.4l-0.1-2.7H213.8z"/>
	<path class="st0" d="M219.6,23.4l2.6-0.1v5.2c0.4-0.5,0.7-0.8,1.2-1c0.4-0.2,0.8-0.3,1.3-0.3c0.4,0,0.8,0.1,1.2,0.3
		c0.3,0.2,0.5,0.5,0.7,0.9c0.2,0.4,0.3,0.9,0.3,1.5V33c0,0.2,0.1,0.4,0.2,0.5c0.1,0.1,0.3,0.1,0.5,0.1h0.6v0.5h-3.7v-0.5h0.4
		c0.3,0,0.5,0,0.6-0.1c0.1-0.1,0.2-0.2,0.2-0.4v-3.2c0-0.6-0.1-1-0.4-1.3c-0.3-0.3-0.6-0.5-1-0.5c-0.3,0-0.6,0.1-0.9,0.3
		s-0.5,0.5-0.7,0.8c-0.2,0.4-0.3,0.8-0.3,1.2v2.7c0,0.2,0.1,0.4,0.2,0.5s0.3,0.2,0.5,0.2h0.6v0.5h-3.6v-0.5h0.4
		c0.3,0,0.5-0.1,0.6-0.2c0.1-0.1,0.2-0.3,0.2-0.5v-8.1c0-0.3-0.1-0.5-0.2-0.7c-0.2-0.1-0.4-0.2-0.7-0.2h-0.5V23.4z"/>
	<path class="st0" d="M228.6,27.4l2.7-0.1v5.9c0,0.2,0,0.3,0.1,0.3c0.1,0.1,0.3,0.1,0.4,0.1h0.8v0.5h-3.9v-0.5h0.7
		c0.2,0,0.4-0.1,0.5-0.2c0.1-0.1,0.1-0.3,0.1-0.5v-4.3c0-0.3-0.1-0.5-0.2-0.6s-0.4-0.2-0.7-0.2h-0.6V27.4z M230.4,23.3
		c0.2,0,0.4,0.1,0.6,0.2c0.2,0.2,0.2,0.4,0.2,0.6c0,0.2-0.1,0.4-0.2,0.6c-0.2,0.2-0.4,0.2-0.6,0.2c-0.2,0-0.4-0.1-0.6-0.2
		c-0.2-0.2-0.2-0.4-0.2-0.6s0.1-0.4,0.2-0.6C230,23.4,230.2,23.3,230.4,23.3z"/>
	<path class="st0" d="M235.4,27.2c0.1,0.5,0.2,1,0.2,1.5c0.3-0.5,0.7-0.9,1.1-1.1c0.4-0.2,0.8-0.3,1.2-0.3c0.5,0,0.9,0.1,1.3,0.4
		c0.4,0.3,0.8,0.7,1,1.3s0.4,1.2,0.4,1.9c0,1.1-0.3,2-1,2.7c-0.5,0.6-1.2,0.9-1.9,0.9c-0.4,0-0.8-0.1-1.2-0.3
		c-0.3-0.2-0.6-0.5-0.9-1v2.8c0,0.2,0.1,0.4,0.2,0.5c0.1,0.1,0.3,0.2,0.5,0.2h0.5V37h-3.6v-0.5h0.5c0.2,0,0.4,0,0.5-0.1
		c0.1-0.1,0.2-0.2,0.2-0.4v-7.2c0-0.3-0.1-0.6-0.2-0.7c-0.2-0.1-0.5-0.2-1-0.2v-0.5L235.4,27.2z M237.5,27.9c-0.5,0-1,0.3-1.3,0.8
		c-0.4,0.5-0.5,1.2-0.5,2.2c0,1,0.2,1.7,0.5,2.2c0.4,0.5,0.8,0.7,1.3,0.7c0.5,0,0.9-0.2,1.2-0.6c0.4-0.5,0.5-1.3,0.5-2.3
		c0-1.1-0.2-1.8-0.5-2.3C238.4,28.1,238,27.9,237.5,27.9z"/>
	<path class="st0" d="M242.4,31.6c0.3,0.8,0.6,1.4,1,1.7c0.4,0.3,0.9,0.5,1.4,0.5c0.5,0,0.9-0.1,1.2-0.3c0.3-0.2,0.4-0.5,0.4-0.9
		c0-0.2-0.1-0.4-0.2-0.5c-0.1-0.2-0.2-0.3-0.4-0.3c-0.2-0.1-0.7-0.2-1.4-0.3c-0.7-0.1-1.3-0.3-1.5-0.5c-0.3-0.2-0.5-0.4-0.7-0.7
		c-0.2-0.3-0.2-0.6-0.2-0.9c0-0.5,0.2-1,0.5-1.4c0.4-0.5,1-0.8,1.8-0.8c0.6,0,1.1,0.2,1.6,0.6l0.5-0.5h0.3l0.2,2.4h-0.5
		c-0.2-0.7-0.5-1.2-0.9-1.5c-0.4-0.3-0.8-0.5-1.3-0.5c-0.5,0-0.8,0.1-1.1,0.3c-0.3,0.2-0.4,0.5-0.4,0.8c0,0.3,0.1,0.5,0.4,0.7
		c0.2,0.2,0.7,0.3,1.4,0.5c0.8,0.1,1.3,0.3,1.6,0.3c0.4,0.1,0.7,0.4,0.9,0.7c0.2,0.3,0.3,0.7,0.3,1.1c0,0.6-0.2,1.1-0.7,1.5
		c-0.5,0.4-1.1,0.6-1.8,0.6c-0.7,0-1.3-0.2-1.9-0.7l-0.5,0.6h-0.4l-0.1-2.7H242.4z"/>
</g>
</svg>
